<?xml version="1.0" standalone="no"?>
<!DOCTYPE svg PUBLIC "-//W3C//DTD SVG 20010904//EN"
 "http://www.w3.org/TR/2001/REC-SVG-20010904/DTD/svg10.dtd">
<svg version="1.0" xmlns="http://www.w3.org/2000/svg"
 width="1826.000000pt" height="1826.000000pt" viewBox="0 0 1826.000000 1826.000000"
 preserveAspectRatio="xMidYMid meet">
<metadata>
Created by potrace 1.11, written by Peter Selinger 2001-2013
</metadata>
<g transform="translate(0.000000,1826.000000) scale(0.100000,-0.100000)"
fill="#000000" stroke="none">
<path d="M2259 18243 c-7 -33 -2 -11167 5 -11358 4 -104 9 -206 11 -225 2 -19
6 -82 10 -140 3 -58 8 -121 10 -140 2 -19 7 -64 10 -100 4 -36 8 -78 10 -95 2
-16 6 -57 10 -90 3 -33 10 -85 15 -115 5 -30 12 -77 15 -105 2 -27 7 -63 10
-80 3 -16 10 -59 16 -95 10 -60 43 -241 54 -300 2 -14 7 -38 10 -55 4 -16 13
-59 22 -95 8 -36 17 -75 19 -86 2 -12 18 -75 35 -140 103 -400 201 -693 349
-1049 38 -90 60 -138 141 -310 13 -27 38 -76 56 -108 18 -33 33 -62 33 -67 0
-4 29 -58 65 -120 36 -62 65 -114 65 -116 0 -9 238 -385 249 -394 4 -3 23 -31
44 -62 34 -52 121 -171 201 -273 17 -22 67 -82 111 -135 44 -52 87 -103 95
-113 85 -103 365 -388 510 -518 596 -536 1348 -991 2125 -1288 61 -23 119 -46
130 -51 32 -15 406 -137 492 -161 181 -49 462 -117 558 -134 17 -3 80 -14 140
-25 61 -11 124 -22 140 -25 17 -2 51 -6 76 -10 25 -3 57 -8 70 -10 13 -2 47
-6 74 -9 28 -3 73 -7 100 -10 228 -25 366 -31 710 -31 291 0 515 7 625 19 19
2 71 7 115 11 44 3 91 8 105 10 14 2 52 6 85 10 58 6 244 31 295 40 14 3 45 8
70 11 25 3 48 8 51 10 3 1 27 6 54 10 39 5 196 39 457 99 140 32 464 132 653
202 152 56 355 137 384 154 9 4 66 31 126 58 139 62 409 201 413 212 2 5 8 9
14 9 23 0 353 204 578 358 109 74 459 344 510 393 8 8 33 29 55 48 161 136
508 476 658 643 324 361 635 787 845 1158 14 25 39 68 54 95 85 150 268 539
343 730 110 279 223 644 286 930 26 117 69 330 75 375 2 19 9 60 14 90 5 30
12 75 15 100 3 25 7 56 9 70 3 14 8 52 11 85 4 33 8 71 10 85 2 14 6 63 10
110 4 47 8 96 10 110 25 166 25 948 0 1190 -2 19 -6 75 -10 124 -4 49 -8 98
-10 108 -2 11 -7 46 -10 79 -4 33 -8 68 -10 77 -1 9 -6 42 -10 72 -4 30 -9 64
-11 75 -2 11 -6 38 -9 60 -3 22 -16 96 -30 165 -13 69 -27 139 -29 155 -7 39
-86 352 -120 470 -144 511 -399 1087 -692 1562 -395 641 -935 1261 -1534 1762
-63 53 -117 98 -120 101 -3 3 -23 19 -45 36 -771 592 -1467 942 -2345 1177
-52 15 -106 28 -120 30 -14 3 -43 10 -65 16 -47 12 -254 54 -375 75 -75 13
-140 22 -295 42 -22 3 -51 7 -65 9 -14 2 -61 7 -105 11 -44 3 -87 8 -96 9
-139 26 -987 26 -1244 0 -22 -2 -80 -7 -130 -10 -49 -4 -106 -8 -125 -10 -19
-2 -75 -6 -125 -10 -49 -4 -97 -8 -105 -10 -9 -2 -58 -6 -110 -10 -52 -4 -96
-8 -98 -9 -4 -5 -3 -5419 2 -5423 3 -3 24 8 48 25 102 70 291 182 307 182 3 0
23 11 44 25 20 14 37 23 37 20 0 -3 10 1 23 9 84 54 355 147 524 180 102 21
142 23 293 21 96 -2 191 -6 210 -10 19 -3 73 -13 120 -21 450 -82 875 -379
1158 -813 79 -119 196 -386 217 -490 2 -9 10 -43 18 -76 35 -135 53 -317 51
-504 -2 -170 -4 -193 -30 -341 -94 -535 -492 -1050 -1009 -1308 -154 -77 -320
-135 -454 -159 -14 -2 -44 -8 -66 -13 -79 -17 -193 -25 -370 -25 -225 0 -316
10 -491 50 -474 111 -819 381 -1052 825 -59 114 -130 290 -166 415 -15 50 -31
104 -36 120 -5 17 -11 41 -14 55 -2 14 -11 54 -19 90 -17 71 -52 292 -62 380
-3 30 -8 71 -10 90 -5 34 -12 135 -21 275 -2 39 -5 2551 -5 5583 l-1 5512
-2463 0 c-2337 0 -2463 -1 -2466 -17z"/>
</g>
</svg>
