<?xml version="1.0" standalone="no"?>
<!DOCTYPE svg PUBLIC "-//W3C//DTD SVG 20010904//EN"
 "http://www.w3.org/TR/2001/REC-SVG-20010904/DTD/svg10.dtd">
<svg version="1.0" xmlns="http://www.w3.org/2000/svg"
 width="250.000000pt" height="250.000000pt" viewBox="0 0 166.000000 166.000000"
 preserveAspectRatio="xMidYMid meet">
<metadata>
Created by potrace 1.11, written by Peter Selinger 2001-2013
</metadata>
<g transform="translate(0.000000,166.000000) scale(0.100000,-0.100000)"
fill="#f22056" stroke="none">
<path d="M2 876 c3 -112 6 -135 23 -158 26 -34 56 -48 106 -48 80 0 138 95
106 173 -26 60 -90 92 -143 70 l-31 -12 1 52 1 52 -33 1 -34 1 4 -131z m155
-31 c46 -32 23 -115 -32 -115 -25 0 -54 23 -56 43 0 7 -2 20 -4 29 -3 18 38
58 59 58 6 0 21 -7 33 -15z"/>
<path d="M798 997 c-3 -7 -4 -61 -3 -122 2 -132 13 -161 73 -192 38 -19 48
-20 85 -9 105 30 119 184 21 231 -37 18 -68 19 -95 5 -18 -10 -19 -7 -19 43 0
53 -1 54 -29 55 -16 0 -31 -5 -33 -11z m164 -156 c4 -3 10 -21 14 -38 12 -59
-54 -95 -96 -53 -26 26 -25 64 2 90 22 20 60 21 80 1z"/>
<path d="M329 903 c-91 -56 -73 -200 28 -229 37 -11 47 -10 79 7 35 17 39 18
56 2 10 -9 18 -14 19 -12 5 19 3 223 -3 232 -5 8 -11 7 -22 -2 -12 -10 -20 -9
-45 3 -38 20 -79 20 -112 -1z m84 -54 c28 -15 37 -28 37 -56 0 -28 -33 -63
-60 -63 -28 0 -60 35 -60 65 0 25 31 65 51 65 6 0 20 -5 32 -11z"/>
<path d="M606 901 c-38 -26 -55 -57 -56 -104 -1 -99 92 -158 179 -113 42 22
46 34 21 56 -20 18 -24 18 -46 4 -47 -31 -42 -8 13 58 47 57 53 70 41 81 -41
41 -105 48 -152 18z m74 -48 c0 -5 -16 -28 -35 -52 l-35 -44 0 32 c0 33 29 71
55 71 8 0 15 -3 15 -7z"/>
<path d="M1122 900 c-110 -69 -47 -253 79 -230 143 26 141 232 -3 247 -32 3
-52 -1 -76 -17z m88 -50 c31 -17 42 -45 29 -77 -5 -15 -16 -31 -22 -35 -60
-38 -123 59 -67 104 26 21 34 22 60 8z"/>
<path d="M1401 909 c-13 -5 -32 -7 -42 -4 -16 6 -18 -3 -18 -115 l-1 -121 33
3 32 3 1 75 c2 102 1 100 29 100 17 0 25 -6 26 -17 1 -10 2 -49 3 -88 l2 -70
29 0 30 0 1 70 c3 109 2 105 29 105 28 0 27 2 30 -90 2 -36 3 -71 4 -78 1 -8
11 -12 29 -10 27 3 27 4 29 83 3 92 -8 127 -44 146 -32 17 -51 18 -83 3 -17
-8 -31 -9 -43 -3 -27 15 -50 18 -76 8z"/>
</g>
</svg>
